<?xml version="1.0" standalone="no"?>
<!DOCTYPE svg PUBLIC "-//W3C//DTD SVG 1.1//EN"
"http://www.w3.org/Graphics/SVG/1.1/DTD/svg11.dtd">

<svg width="262" height="120" view_box="0 0 262 120"
xmlns="http://www.w3.org/2000/svg"
xmlns:link="http://www.w3.org/1999/xlink">\n\n<desc>Généré par Mocodo 2.3.7 le Sat, 12 Dec 2020 05:58:49</desc>

<rect id="frame" x="0" y="0" width="262" height="120" fill="#f7f7f7" stroke="none" stroke-width="0"/>

<!-- Association WIN -->
<line x1="43" y1="60" x2="130" y2="60" stroke="#8073ac" stroke-width="2"/>
<text x="82" y="77.0" fill="#b35806" font-family="Verdana" font-size="12">0,N</text>
<line x1="218" y1="60" x2="130" y2="60" stroke="#8073ac" stroke-width="2"/>
<text x="157" y="77.0" fill="#b35806" font-family="Verdana" font-size="12">1,1</text>
<g id="association-WIN">
	<path d="M 137 35 a 14 14 90 0 1 14 14 V 60 h -42 V 49 a 14 14 90 0 1 14 -14" fill="#b2abd2" stroke="#b2abd2" stroke-width="0"/>
	<path d="M 151 60.0 v 11 a 14 14 90 0 1 -14 14 H 123 a 14 14 90 0 1 -14 -14 V 60.0 H 42" fill="#d8daeb" stroke="#d8daeb" stroke-width="0"/>
	<rect x="109" y="35" width="42" height="50" fill="none" rx="14" stroke="#8073ac" stroke-width="2"/>
	<line x1="109" y1="60" x2="151" y2="60" stroke="#8073ac" stroke-width="1"/>
	<text x="116" y="52.7" fill="#000000" font-family="Verdana" font-size="12">WIN</text>
</g>

<!-- Entity USERS -->
<g id="entity-USERS">
	<g id="frame-USERS">
		<rect x="9" y="9" width="68" height="25" fill="#fdb863" stroke="#fdb863" stroke-width="0"/>
		<rect x="9" y="34.0" width="68" height="77" fill="#fee0b6" stroke="#fee0b6" stroke-width="0"/>
		<rect x="9" y="9" width="68" height="102" fill="none" stroke="#e08214" stroke-width="2"/>
		<line x1="9" y1="34" x2="77" y2="34" stroke="#e08214" stroke-width="1"/>
	</g>
	<text x="22" y="26.7" fill="#000000" font-family="Verdana" font-size="12">USERS</text>
	<text x="14" y="51.7" fill="#000000" font-family="Verdana" font-size="12">id</text>
	<line x1="14" y1="54" x2="26" y2="54" stroke="#000000" stroke-width="1"/>
	<text x="14" y="68.8" fill="#000000" font-family="Verdana" font-size="12">firstname</text>
	<text x="14" y="85.8" fill="#000000" font-family="Verdana" font-size="12">email</text>
	<text x="14" y="102.8" fill="#000000" font-family="Verdana" font-size="12">password</text>
</g>

<!-- Entity INCOMES -->
<g id="entity-INCOMES">
	<g id="frame-INCOMES">
		<rect x="183" y="9" width="70" height="25" fill="#fdb863" stroke="#fdb863" stroke-width="0"/>
		<rect x="183" y="34.0" width="70" height="77" fill="#fee0b6" stroke="#fee0b6" stroke-width="0"/>
		<rect x="183" y="9" width="70" height="102" fill="none" stroke="#e08214" stroke-width="2"/>
		<line x1="183" y1="34" x2="253" y2="34" stroke="#e08214" stroke-width="1"/>
	</g>
	<text x="188" y="26.7" fill="#000000" font-family="Verdana" font-size="12">INCOMES</text>
	<text x="188" y="51.7" fill="#000000" font-family="Verdana" font-size="12">id</text>
	<line x1="188" y1="54" x2="200" y2="54" stroke="#000000" stroke-width="1"/>
	<text x="188" y="68.8" fill="#000000" font-family="Verdana" font-size="12">month</text>
	<text x="188" y="85.8" fill="#000000" font-family="Verdana" font-size="12">year</text>
	<text x="188" y="102.8" fill="#000000" font-family="Verdana" font-size="12">amount</text>
</g>
</svg>